<?xml version="1.0" encoding="UTF-8"?>
<svg width="43px" height="31px" viewBox="0 0 43 31" version="1.1" xmlns="http://www.w3.org/2000/svg" xmlns:xlink="http://www.w3.org/1999/xlink">
    <!-- Generator: Sketch 47.1 (45422) - http://www.bohemiancoding.com/sketch -->
    <title>mail-icon</title>
    <desc>Created with Sketch.</desc>
    <defs></defs>
    <g id="Page-1" stroke="none" stroke-width="1" fill="none" fill-rule="evenodd">
        <g id="Landing-Page" transform="translate(-715.000000, -3853.000000)" fill-rule="nonzero" fill="#941A00">
            <g id="mail-icon" transform="translate(715.000000, 3853.000000)">
                <path d="M21.5046016,21.6997343 L16.1913206,17 L1,30.159876 C1.55218855,30.6775908 2.2976431,31 3.1197905,31 L39.8894126,31 C40.7084923,31 41.4508792,30.6775908 42,30.159876 L26.8178825,17 L21.5046016,21.6997343 Z" id="Shape"></path>
                <path d="M42,0.858166667 C41.4478528,0.326166667 40.7055215,0 39.8803681,0 L3.11349693,0 C2.29447853,0 1.55214724,0.329333333 1,0.8645 L21.4969325,19 L42,0.858166667 Z" id="Shape"></path>
                <polygon id="Shape" points="0 3 0 29 15 16.1470871"></polygon>
                <polygon id="Shape" points="28 16.1517266 43 29 43 3"></polygon>
            </g>
        </g>
    </g>
</svg>