<?xml version="1.0" encoding="UTF-8"?>
<svg width="23px" height="40px" viewBox="0 0 23 40" version="1.1" xmlns="http://www.w3.org/2000/svg" xmlns:xlink="http://www.w3.org/1999/xlink">
    <!-- Generator: Sketch 47.1 (45422) - http://www.bohemiancoding.com/sketch -->
    <title>phone-icon</title>
    <desc>Created with Sketch.</desc>
    <defs></defs>
    <g id="Page-1" stroke="none" stroke-width="1" fill="none" fill-rule="evenodd">
        <g id="Landing-Page" transform="translate(-711.000000, -3778.000000)" fill-rule="nonzero" fill="#941A00">
            <g id="Group" transform="translate(711.000000, 3778.000000)">
                <g id="phone-icon">
                    <path d="M19.7057143,0 L3.21142857,0 C1.63285714,0 0.358571429,1.28 0.358571429,2.85571429 L0.358571429,36.35 C0.358571429,37.9242857 1.63285714,39.2028571 3.21142857,39.2028571 L19.7057143,39.2028571 C21.2814286,39.2028571 22.5585714,37.9242857 22.5585714,36.35 L22.5585714,2.85571429 C22.5585714,1.28 21.2814286,0 19.7057143,0 Z M7.38857143,1.73428571 L15.5314286,1.73428571 C15.7371429,1.73428571 15.9042857,2.04142857 15.9042857,2.42142857 C15.9042857,2.80142857 15.7371429,3.11 15.5314286,3.11 L7.38857143,3.11 C7.18142857,3.11 7.01714286,2.80142857 7.01714286,2.42142857 C7.01714286,2.04142857 7.18142857,1.73428571 7.38857143,1.73428571 Z M11.46,36.3842857 C10.4557143,36.3842857 9.63857143,35.5671429 9.63857143,34.5614286 C9.63857143,33.5557143 10.4557143,32.7414286 11.46,32.7414286 C12.4614286,32.7414286 13.2785714,33.5557143 13.2785714,34.5614286 C13.2785714,35.5671429 12.4614286,36.3842857 11.46,36.3842857 Z M20.4214286,30.1428571 L2.49714286,30.1428571 L2.49714286,4.81857143 L20.4214286,4.81857143 L20.4214286,30.1428571 Z" id="Shape"></path>
                </g>
            </g>
        </g>
    </g>
</svg>